<svg width="21" height="19" viewBox="0 0 21 19" fill="none" xmlns="http://www.w3.org/2000/svg">
<path d="M0.446474 9.27714C0.553682 4.1428 5.08976 -0.187155 10.8277 0.00623814C16.1367 0.185084 20.6665 4.4115 20.4341 9.89669C20.216 15.0319 15.8232 18.9032 10.6466 18.9982C4.83661 19.1051 0.291518 14.5407 0.446474 9.27714ZM3.92489 4.08034C2.70596 5.45035 1.96901 7.02231 1.81676 8.84843H5.1267C5.15553 7.59907 5.34652 6.38565 5.66094 5.2193C5.07625 4.83594 4.51679 4.46798 3.92489 4.08034ZM15.7682 10.1448C15.7151 11.3643 15.5628 12.5477 15.2466 13.7098C15.2331 13.7611 15.2998 13.8587 15.3574 13.8955C15.7457 14.1488 16.1439 14.3892 16.5349 14.64C16.6737 14.729 16.8016 14.8351 16.934 14.9326C18.2034 13.5455 18.907 11.9607 19.0737 10.144H15.7673L15.7682 10.1448ZM19.0719 8.85527C18.9413 7.03515 18.0322 5.15256 16.9466 4.10515C16.425 4.43289 15.9133 4.76491 15.3881 5.07725C15.2457 5.16197 15.2331 5.23214 15.2592 5.38018C15.4223 6.28981 15.5718 7.20201 15.716 8.11507C15.7547 8.3581 15.7565 8.60626 15.7755 8.85527H19.0719ZM5.1222 10.1577H1.81045C1.98253 11.9812 2.69424 13.5592 3.92399 14.9164C4.50958 14.533 5.07535 14.1633 5.65193 13.7851C5.35193 12.6102 5.14652 11.4036 5.1222 10.1568V10.1577ZM9.75558 8.85185V6.33773C9.26458 6.265 8.788 6.21622 8.32133 6.11952C7.84835 6.02112 7.38708 5.87564 6.9042 5.74643C6.62672 6.76217 6.5105 7.79503 6.46095 8.85185H9.75558ZM11.1304 10.1543V12.6923C12.1214 12.7351 13.0574 12.9679 13.9853 13.2717C14.2313 12.2354 14.407 11.2145 14.4097 10.1534H11.1304V10.1543ZM6.9114 13.2785C7.83394 12.9473 8.77809 12.7471 9.75467 12.6898V10.1508H6.46365C6.5087 11.2102 6.62942 12.2448 6.9114 13.2785ZM14.4115 8.85099C14.3908 7.78562 14.2547 6.7596 13.9935 5.79349C13.034 5.99202 12.0889 6.18798 11.1313 6.38651V8.85185H14.4115V8.85099ZM11.1295 13.9708V17.6076C12.4835 16.9307 13.0637 15.7498 13.5944 14.5082C12.7925 14.1881 11.9835 14.0358 11.1295 13.9716V13.9708ZM9.75467 5.02334V1.40192C8.40872 2.0865 7.81952 3.26312 7.28708 4.48852C7.9006 4.7632 8.92764 4.98398 9.75467 5.02334ZM11.1286 5.01136C11.8178 5.01479 13.2034 4.70587 13.57 4.47226C13.1043 3.05946 12.0169 1.70228 11.1286 1.43872V5.01136ZM7.27897 14.5013C7.83213 15.7447 8.40781 16.9307 9.75558 17.6033V13.9759C8.90061 14.0256 8.0988 14.2181 7.27897 14.5013ZM13.7304 17.113C14.5259 16.7938 15.27 16.3822 15.9773 15.8106C15.5764 15.547 15.2007 15.3006 14.8484 15.0704C14.4619 15.7755 14.0962 16.443 13.7295 17.113H13.7304ZM15.9935 3.18183C15.2664 2.63245 14.5367 2.19004 13.7484 1.89995C14.107 2.56228 14.4736 3.23745 14.8529 3.93743C15.2079 3.70211 15.58 3.45566 15.9926 3.18183H15.9935ZM6.04473 3.94C6.4123 3.25285 6.76456 2.59395 7.13032 1.91108C6.32581 2.22513 5.59157 2.62732 4.90958 3.18611C5.31049 3.45224 5.68617 3.70211 6.04563 3.94H6.04473ZM4.92219 15.8063C5.45824 16.3078 6.75014 17.0309 7.11681 17.0685C6.76816 16.4224 6.4087 15.7558 6.03932 15.0704C5.67535 15.31 5.30778 15.5522 4.92219 15.8063Z" fill="white"/>
</svg>
