<svg width="26" height="29" viewBox="0 0 26 29" fill="none" xmlns="http://www.w3.org/2000/svg">
<path d="M16.3125 0.417969C16.7185 0.417969 17.427 0.536326 18.8877 1.56641C19.745 2.17127 20.7495 3.01483 21.7119 3.94043C22.6743 4.866 23.5517 5.83175 24.1807 6.65625C25.2518 8.06128 25.375 8.7433 25.375 9.13379V26.1299C25.375 27.331 24.3582 28.3096 23.1094 28.3096H2.26562C1.01681 28.3096 0 27.331 0 26.1299V2.59668C3.53225e-06 1.3956 1.01681 0.417969 2.26562 0.417969H16.3125ZM2.26562 2.16113C2.02094 2.16113 1.8125 2.36135 1.8125 2.59668V26.1299C1.81391 26.245 1.86259 26.3551 1.94727 26.4365C2.03194 26.5179 2.14591 26.565 2.26562 26.5664H23.1094C23.3559 26.5664 23.5625 26.367 23.5625 26.1299V9.13379H17.2188C16.9785 9.13379 16.7481 9.04219 16.5781 8.87891C16.4082 8.71545 16.3125 8.49289 16.3125 8.26172V2.16113H2.26562ZM11.8447 5.27246C12.3575 5.25173 12.6858 5.64419 12.8525 6.01367L12.9043 6.14648C12.9458 6.24936 12.973 6.35699 12.9844 6.4668C13.1469 7.59557 12.5379 10.9267 12.5332 10.9521C12.5042 11.0775 12.4717 11.1996 12.4355 11.3389C13.001 12.8328 13.9107 14.191 15 15.1689C15.4042 15.5333 15.9206 15.8371 16.4209 16.1143C17.4354 15.9729 18.4593 15.9 19.4844 15.8975C20.7889 15.9149 21.6461 16.1087 22.0322 16.4746L22.0342 16.4717C22.1762 16.5979 22.2751 16.7622 22.3184 16.9434C22.3872 17.4594 22.3349 17.964 22.083 18.3301C21.9418 18.5232 21.7326 18.6606 21.4941 18.7168C21.3322 18.7586 21.1346 18.7793 20.9014 18.7793C19.6 18.7793 17.5357 18.1484 15.8574 17.2402C13.5106 17.5925 11.1961 18.122 8.93555 18.8232C7.02344 22.0324 5.63483 23.4638 4.44043 23.4639C4.21557 23.4628 3.99365 23.411 3.79297 23.3135L3.31641 23.083C3.01944 22.9191 2.9762 22.5652 3.03418 22.2881C3.21935 21.4201 4.32986 20.3271 6.00781 19.3633C6.20532 19.2483 7.04826 18.8184 7.08496 18.8008L7.57617 18.5488C8.05277 17.7645 8.57834 16.8391 9.1582 15.748L9.23047 15.6133C9.78144 14.5761 10.4049 13.3993 10.9033 12.2314L11.0811 11.8154C10.3869 9.26002 10.0026 7.28642 10.374 5.9668C10.4954 5.545 10.9616 5.26376 11.5342 5.26367L11.8447 5.27246ZM6.53711 19.8789C5.26315 20.8831 4.40085 22.0145 4.18164 22.5889C4.76888 22.3339 5.66283 21.519 6.99609 19.4736C6.81492 19.6392 6.61687 19.8161 6.53711 19.8789ZM19.4912 16.9297C19.1059 16.9297 18.6801 16.9468 18.2139 16.9805C19.4263 17.4824 20.2926 17.7891 20.9922 17.7891C21.2079 17.789 21.5453 17.7492 21.6631 17.6777V17.6758C21.7805 17.6056 21.7704 17.2646 21.0859 17.0957C20.4011 16.9267 20.1925 16.9297 19.4912 16.9297ZM11.7705 13.2607C11.4443 14.0713 11.0066 15.0574 10.3125 16.3193C10.0273 16.8353 9.75067 17.3232 9.48242 17.7822C10.9524 17.2383 12.6206 16.7916 14.5527 16.4238C14.421 16.3274 14.2952 16.2312 14.1768 16.1348C13.1981 15.3269 12.3826 14.3526 11.7705 13.2607ZM11.7373 5.85645C11.5631 5.85722 11.5779 7.15898 11.5781 7.17969C11.5781 7.87175 11.6848 8.93042 11.9023 9.60156C12.1651 9.14833 12.3775 8.53446 12.3594 7.66113C12.3413 6.78777 12.1216 5.85645 11.7373 5.85645ZM18.123 7.39062H22.4844C21.9805 6.76481 21.2987 6.01156 20.4287 5.1748C19.5605 4.33808 18.7737 3.68285 18.123 3.19824V7.39062Z" fill="black"/>
</svg>
