<svg width="107" height="68" viewBox="0 0 107 68" fill="none" xmlns="http://www.w3.org/2000/svg">
<g clip-path="url(#clip0_65_6419)">
<path d="M27.2539 48.4093C32.9202 47.4836 37.729 45.0503 41.6406 40.9044C48.6592 33.4723 50.1764 22.1059 45.3676 13.0009C40.4071 3.61818 30.1629 -1.39388 19.6285 0.411253C9.70094 2.11059 1.52802 10.3626 0.0834045 20.433C-1.67783 32.7119 3.09795 52.0791 19.9847 62.209C23.9425 64.5828 28.4413 66.0507 32.7157 67.8691C33.1643 68.0608 33.7909 67.8162 34.3319 67.7699C34.1274 67.2541 34.0284 66.6392 33.692 66.2292C29.9255 61.6073 27.1484 56.582 27.122 50.4062C27.122 50.0227 27.1352 49.6326 27.155 49.2491C27.1682 49.0309 27.2012 48.8127 27.2473 48.4027L27.2539 48.4093ZM31.1326 65.6474C30.5323 65.4887 30.2289 65.4292 29.9321 65.33C12.445 59.4451 0.881565 42.8286 1.33012 24.2284C1.64675 10.9181 11.9239 1.21133 25.2024 1.67419C38.725 2.14365 49.1012 15.6193 46.1328 28.8438C43.9692 38.491 37.0825 45.0503 27.2803 46.71C26.1325 46.9017 25.5784 47.4307 25.6246 48.5217C25.7236 50.7104 25.7038 52.9321 26.0864 55.0744C26.7724 58.9227 28.7579 62.2288 31.1326 65.6474Z" fill="#A1CF5F"/>
<path d="M85.8447 48.4616C93.4569 47.1326 99.1628 43.5686 103.173 37.4192C108.385 29.4184 108.259 18.7133 102.883 10.7654C97.3686 2.61253 87.441 -1.49366 78.028 0.496619C68.3445 2.54641 60.719 10.0116 59.0963 19.5795C57.434 29.3457 59.7032 38.5301 64.38 47.0995C70.3959 58.1154 79.9937 64.5557 91.8144 67.9676C92.2102 68.08 92.6983 67.8751 93.1403 67.8156C92.9952 67.3395 92.9754 66.7576 92.6851 66.4072C89.6178 62.7837 87.2233 58.8031 86.3262 54.0886C85.9832 52.2769 85.9964 50.399 85.8381 48.4682L85.8447 48.4616ZM89.5387 65.6269C88.2787 65.1376 87.0056 64.6814 85.7589 64.1524C68.9249 57.0443 58.2124 38.9533 60.376 21.3053C61.4842 12.2664 68.2785 4.58297 77.1572 2.34143C86.2668 0.033764 95.7327 3.48534 101.188 11.1092C106.577 18.6273 106.854 28.9357 101.821 36.5927C98.1206 42.2263 92.9292 45.6316 86.2734 46.6895C85.0069 46.8879 84.3869 47.3838 84.4528 48.6864C84.5452 50.4982 84.4528 52.3298 84.7167 54.1084C85.3368 58.2808 87.3421 61.8844 89.5387 65.6203V65.6269Z" fill="#A1CF5F"/>
</g>
<defs>
<clipPath id="clip0_65_6419">
<rect width="107" height="68" fill="white" transform="matrix(-1 0 0 1 107 0)"/>
</clipPath>
</defs>
</svg>
