<svg width="45" height="46" viewBox="0 0 45 46" fill="none" xmlns="http://www.w3.org/2000/svg">
<path d="M22.4918 0.898926C29.3443 0.898926 36.1969 0.898926 43.0494 0.898926C44.633 0.898926 44.9681 1.21296 44.9681 2.75285C44.9719 9.62371 45.0632 16.4984 44.9186 23.3692C44.8691 25.7188 44.4884 28.1062 43.6585 30.3725C43.2397 31.5151 42.9542 32.688 42.3908 33.8004C41.0241 36.498 39.3033 38.9043 37.0153 40.8793C34.5903 42.9754 31.7275 44.2845 28.6477 45.098C24.3306 46.2368 19.9755 46.1422 15.7193 44.9353C11.7068 43.7964 8.2729 41.655 5.55094 38.3898C3.24012 35.6165 1.7478 32.4762 0.936918 29.0407C0.396332 26.7668 -0.0148182 24.44 0.000409594 22.0601C0.0460929 15.7227 0.0118304 9.38914 0.0118304 3.05175C0.0118304 1.16756 0.278317 0.898926 2.12849 0.898926C8.91628 0.898926 15.7041 0.898926 22.4918 0.898926ZM22.4957 23.4941C19.294 23.4941 16.0924 23.4941 12.8907 23.4941C11.8019 23.4941 11.505 23.8232 11.7753 24.8826C12.1941 26.5095 12.6204 28.1251 13.4465 29.6347C14.7333 31.9843 16.7357 33.335 19.2407 33.982C21.0985 34.4625 23.0477 34.3452 24.9131 34.1296C27.635 33.8155 29.8164 32.3967 31.2973 30.0471C32.3138 28.4354 32.8848 26.6609 33.2008 24.7918C33.3797 23.74 33.2008 23.4941 32.1044 23.4941C28.9027 23.4941 25.7011 23.4941 22.4995 23.4941H22.4957Z" fill="#F344B0"/>
</svg>
