<svg width="70" height="47" viewBox="0 0 70 47" fill="none" xmlns="http://www.w3.org/2000/svg">
<path d="M36.074 0.898926C36.5076 1.59201 36.8495 2.12327 37.1762 2.6637C39.402 6.3398 41.5637 10.0525 43.1362 14.0706C43.359 14.6385 43.5361 15.2217 43.7254 15.8018C44.1712 17.1757 44.1315 18.4917 43.6064 19.887C42.4156 23.041 41.6065 26.2958 41.695 29.7062C41.7378 31.3764 42.0278 33.0007 42.898 34.4601C43.1911 34.9547 43.5819 35.3914 44.0185 35.9745C46.3604 31.8557 48.6259 27.8743 50.986 23.7188C51.9234 28.0117 52.821 32.1213 53.7462 36.3562C53.969 36.115 54.1248 35.9654 54.253 35.7974C55.8529 33.7212 57.178 31.5015 57.6085 28.8727C57.7459 28.0331 57.7642 27.1324 57.6085 26.2988C57.407 25.1966 57.5871 24.2257 58.3169 23.4562C59.3946 22.3174 60.4816 21.1327 61.7548 20.2351C64.0356 18.6291 66.4568 17.2215 68.8231 15.7346C68.9452 15.6583 69.1009 15.6277 69.3116 15.5484C68.8566 19.3924 68.188 23.096 66.0965 26.3904C64.6859 28.6132 63.9898 31.129 63.3913 33.6449C62.3868 37.8706 61.5289 42.1299 60.6068 46.3739C60.5701 46.5479 60.5243 46.7189 60.4663 46.9631C43.3987 43.6473 26.3372 43.3054 9.20246 46.9234C8.98873 45.409 8.79027 43.858 8.54601 42.3161C7.99948 38.8476 7.33998 35.3944 6.07289 32.1091C5.38286 30.3199 4.50658 28.5826 3.54176 26.9217C1.49914 23.3982 0.53737 19.5725 0 15.472C0.296164 15.6155 0.497678 15.698 0.686979 15.8048C3.78602 17.5696 6.83009 19.4138 9.42229 21.8991C9.86196 22.3204 10.2619 22.7845 10.6405 23.2639C11.2268 24.0028 11.471 24.8363 11.4741 25.8103C11.4954 30.0146 13.532 33.2938 16.4142 36.3592C17.1989 32.1641 17.953 28.1369 18.7072 24.1096C18.7652 24.0913 18.8232 24.0761 18.8812 24.0577C21.1559 27.9689 23.4306 31.8771 25.8884 36.1028C26.1235 35.7181 26.264 35.4127 26.4746 35.1654C29.4057 31.6847 30.166 27.6606 29.3722 23.2883C29.1462 22.0457 28.792 20.806 28.3218 19.6367C27.8547 18.4795 27.7326 17.3315 28.1875 16.2231C29.2042 13.7378 30.2148 11.2341 31.4514 8.85261C32.8406 6.17797 34.4741 3.62852 36.074 0.898926Z" fill="#FFC900"/>
</svg>
