<svg width="71" height="43" viewBox="0 0 71 43" fill="none" xmlns="http://www.w3.org/2000/svg">
<path fill-rule="evenodd" clip-rule="evenodd" d="M40.8182 41.1214L37.6153 42.7127C37.5799 42.6449 37.5463 42.5822 37.5143 42.5223L37.5142 42.5222C37.4621 42.4248 37.4142 42.3351 37.369 42.244C36.8552 41.2212 36.3412 40.1985 35.8271 39.1757L35.8252 39.1719C33.9898 35.5201 32.1543 31.8681 30.3299 28.2105C30.1547 27.8617 29.9576 27.749 29.5689 27.7509C23.4405 27.7654 17.3121 27.7636 11.1855 27.7509C10.8242 27.7509 10.6544 27.8671 10.4993 28.1814C8.66259 31.8579 6.81805 35.5299 4.97356 39.2019L4.9729 39.2032L4.97277 39.2034C4.46062 40.223 3.94847 41.2426 3.4365 42.2622C3.39461 42.3456 3.35061 42.4276 3.30014 42.5217L3.30012 42.5217L3.3001 42.5217C3.26923 42.5793 3.23595 42.6413 3.19925 42.7109C2.19837 42.2136 1.2088 41.7228 0.192548 41.2187L0.182627 41.2138L0 41.1232C0.0226204 41.0724 0.0435818 41.0239 0.063763 40.9773C0.107082 40.8773 0.146806 40.7855 0.191626 40.6963C6.79087 27.551 13.3901 14.4094 20.0003 1.27144C20.0824 1.10976 20.2777 0.893577 20.4128 0.899027C20.5551 0.904477 20.7358 1.12066 20.8179 1.28597C27.419 14.4112 34.0128 27.5383 40.6047 40.6672C40.6464 40.749 40.6845 40.8322 40.7282 40.9274L40.7284 40.9276C40.7555 40.9867 40.7847 41.0504 40.8182 41.1214ZM12.5342 24.1503H28.2786C25.6506 18.9201 23.0499 13.7427 20.4055 8.47807C19.0814 11.1141 17.7705 13.7242 16.4629 16.328L16.451 16.3517L16.4123 16.4286C15.1199 19.0022 13.8304 21.5698 12.5342 24.1503ZM54.208 27.4099V37.2346H54.2136H60.9018H60.9074V27.3818H70.6984H70.704V20.7216H70.6984H60.8232V10.8521H60.8176H54.1182H54.1126V20.8058H44.3047V27.4099H54.208Z" fill="#00BCDA"/>
</svg>
