<svg width="73" height="52" viewBox="0 0 73 52" fill="none" xmlns="http://www.w3.org/2000/svg">
<path d="M23.3831 6.43493C23.0494 5.42391 22.7388 4.49218 22.415 3.51089C23.5186 2.66837 24.599 1.82255 25.7124 1.01637C25.8941 0.884213 26.2345 0.874301 26.4657 0.933773C28.5638 1.48884 30.6585 2.05713 32.7433 2.66507C33.001 2.74106 33.2918 3.0252 33.3909 3.28292C33.7841 4.30716 34.1376 5.35122 34.4317 6.4085C34.5011 6.66291 34.3689 7.08252 34.1806 7.28076C33.6486 7.82922 33.0407 8.29839 32.4195 8.83694C33.5363 9.56382 34.6002 10.2544 35.6178 10.9152C34.7819 11.7841 34.0253 12.5738 33.2224 13.413C28.1574 9.97352 22.6562 8.94597 16.752 10.7004C12.5724 11.9427 9.20894 14.4075 6.77059 18.0254C1.22318 26.2589 2.99412 36.8185 10.0977 42.9243C16.8709 48.7493 27.3578 48.8021 34.2929 42.9838C41.456 36.9738 43.4813 25.9252 37.1641 17.2423C38.0132 16.5518 38.8656 15.8546 39.7181 15.1608C44.8095 21.0386 46.4417 31.8163 40.9934 40.4562C35.3931 49.3341 24.3974 53.1337 14.5449 49.4662C4.6263 45.7823 -0.983894 36.1115 0.142769 26.1036C1.43794 14.5991 11.5779 5.89308 23.3831 6.43493Z" fill="#FF131C"/>
<path d="M36.9964 46.9891C37.7728 46.1929 38.5558 45.3867 39.3455 44.5772C48.3258 50.6962 59.4834 47.9968 65.1299 40.4505C70.7104 32.9934 69.9141 22.3347 63.2565 15.8258C56.5263 9.24423 45.9072 8.66934 38.5393 14.4381C31.0029 20.3391 28.6372 31.8039 35.2584 40.6818C34.4324 41.3789 33.5998 42.0794 32.7672 42.7798C26.972 36.0859 25.5711 23.7719 33.2727 14.785C41.351 5.35543 55.6342 4.31467 64.7235 12.4458C74.1564 20.8842 74.9362 35.0319 66.4845 44.1708C57.8446 53.5145 44.503 52.9892 36.9964 46.9825V46.9891Z" fill="#FF131C"/>
</svg>
