<svg width="48" height="49" viewBox="0 0 48 49" fill="none" xmlns="http://www.w3.org/2000/svg">
<path d="M47.6829 24.7174C47.7198 37.8362 37.0434 48.5357 23.8645 48.5841C10.7618 48.6303 0.03468 37.9239 8.37891e-05 24.7635C-0.0345124 11.6446 10.6488 0.942868 23.8184 0.899046C36.9304 0.857531 47.646 11.5501 47.6829 24.7174ZM16.7977 24.6989C16.7977 27.7918 16.8023 30.8824 16.7931 33.9753C16.7931 34.5196 16.9361 34.9601 17.4504 35.2139C17.9232 35.4468 18.3361 35.2623 18.7512 35.0224C24.0329 31.971 29.3192 28.9243 34.6032 25.8752C35.7379 25.2202 35.7195 24.2607 34.564 23.5941C29.2984 20.552 24.0306 17.5121 18.7628 14.4746C17.6142 13.8127 16.7977 14.2785 16.7977 15.6001C16.7954 18.6354 16.7977 21.6683 16.7977 24.7035V24.6989Z" fill="#5B53E1"/>
</svg>
